<svg width="250" height="50" version="1.1" viewBox="0 0 250 50" xmlns="http://www.w3.org/2000/svg">
	<rect id="background" x="20.495" y=".494" width="209.01" height="49.012" rx="4.9765" ry="4.9012" fill="#ffd5e5" stroke="#800033" stroke-linecap="round" stroke-linejoin="round" stroke-width=".98774"/>
	<g transform="translate(-1.1121)">
		<g transform="translate(2.9343)">
			<g transform="matrix(.24879 0 0 .24879 121.84 25.806)">
				<path d="m-298.13-64.196c-0.84015 0.0153-1.6803 0.0631-2.5195 0.14258-0.83918 0.0794-1.6776 0.19081-2.5117 0.33398-0.83412 0.14318-1.6633 0.31887-2.4883 0.52539-0.82497 0.20653-1.6453 0.4434-2.457 0.71289-0.81173 0.2695-1.6158 0.57028-2.4102 0.90235-0.7944 0.33206-1.5786 0.69559-2.3516 1.0898-0.77297 0.39426-1.5338 0.81934-2.2812 1.2754-0.74745 0.45606-1.4814 0.94347-2.1992 1.4609-0.71785 0.51747-1.4194 1.066-2.1035 1.6445-0.68415 0.5785-1.3517 1.187-1.998 1.8262-0.64636 0.63914-1.2725 1.3084-1.877 2.0078-0.60448 0.69938-1.1876 1.4282-1.7461 2.1875-0.55851 0.75924-1.0931 1.5485-1.6016 2.3672-0.50844 0.81873-0.98907 1.6671-1.4434 2.5449-0.45428 0.87781-0.8813 1.7861-1.2773 2.7227s-0.76201 1.9017-1.0957 2.8965c-0.3337 0.99483-0.63508 2.0195-0.90235 3.0723-0.38313 1.5092-0.67758 3.0466-0.88476 4.6113s-0.32789 3.1552-0.36328 4.7676c-0.0354 1.6124 0.0143 3.2483 0.14648 4.9004 0.13223 1.6521 0.34689 3.322 0.64258 5.0059 0.29569 1.6838 0.67197 3.3802 1.127 5.0879 0.45498 1.7076 0.98951 3.4249 1.5996 5.1484 0.6101 1.7235 1.2975 3.4541 2.0586 5.1855 0.76106 1.7314 1.5961 3.4639 2.5039 5.1953s1.887 3.4622 2.9375 5.1855c1.0505 1.7234 2.1724 3.439 3.3613 5.1465s2.4463 3.4063 3.7695 5.0898 2.7127 3.3521 4.166 5.0039 2.9695 3.2864 4.5488 4.8984 3.2208 3.2013 4.9219 4.7656 3.4625 3.1027 5.2812 4.6113 3.6948 2.9886 5.627 4.4336c1.6038 1.1994 3.782 2.7162 6.166 4.3164s4.9729 3.2844 7.3984 4.8184c2.4256 1.534 4.6875 2.9174 6.416 3.918 0.86425 0.50027 1.595 0.90427 2.1465 1.1836 0.55149 0.27932 0.9239 0.43359 1.0703 0.43359 0.0506 0 0.79671-0.35459 1.6582-0.78906 2.4048-1.2128 4.8364-2.5568 7.2715-4.0117s4.8732-3.0222 7.293-4.6797c2.4197-1.6575 4.821-3.4059 7.1797-5.2266 2.3586-1.8207 4.6759-3.7138 6.9277-5.6582s4.4377-3.9401 6.5371-5.9688c2.0994-2.0286 4.1125-4.0887 6.0137-6.1621s3.6904-4.1596 5.3476-6.2383c0.82864-1.0394 1.6257-2.078 2.3848-3.1113 0.75909-1.0333 1.4802-2.0617 2.1641-3.084 1.0448-1.5619 2.1844-3.4544 3.2949-5.4297s2.1934-4.0338 3.127-5.9297 1.7166-3.6276 2.2305-4.9512c0.25693-0.66178 0.44621-1.2221 0.55273-1.6484 0.10652-0.42629 0.13087-0.71845 0.0566-0.84766-0.058-0.10093-0.0809-0.16755-0.0723-0.19141 9e-3 -0.02386 0.048-0.0061 0.11915 0.05859 0.0594 0.05405 0.14419-0.0087 0.24609-0.16992s0.22159-0.42041 0.35547-0.75977c0.26775-0.67871 0.58953-1.6772 0.92187-2.8457s0.67582-2.5077 0.98828-3.8691c0.31247-1.3614 0.59266-2.7446 0.80079-4.002 0.12754-0.77048 0.23479-1.7758 0.31835-2.8926 0.0836-1.1168 0.14485-2.3449 0.17774-3.5605 0.0329-1.2157 0.0382-2.4192 0.0137-3.4863s-0.0794-1.9987-0.16797-2.6699c-0.1089-0.8257-0.20509-1.7713-0.21484-2.1016-0.0102-0.34375-0.11656-0.94081-0.28711-1.6836s-0.40706-1.6315-0.67578-2.5586c-0.26873-0.92711-0.57034-1.8923-0.875-2.7891-0.30467-0.89674-0.61225-1.7253-0.89063-2.377-0.38414-0.89925-0.79456-1.7698-1.2305-2.6133-0.4359-0.84351-0.8967-1.6595-1.3809-2.4473-0.48415-0.78773-0.99062-1.5474-1.5195-2.2793-0.5289-0.73193-1.0802-1.4352-1.6504-2.1113-0.57015-0.67613-1.1597-1.325-1.7676-1.9453-0.60789-0.62029-1.2348-1.2129-1.877-1.7773s-1.2998-1.1008-1.9726-1.6094c-0.67288-0.50855-1.3604-0.98874-2.0606-1.4414s-1.4129-0.8767-2.1367-1.2734-1.4591-0.76662-2.2031-1.1074c-0.74406-0.3408-1.497-0.65266-2.2578-0.9375-0.76078-0.28484-1.5287-0.54262-2.3027-0.77149-0.774-0.22886-1.5542-0.4287-2.3379-0.60156-0.78372-0.17286-1.5714-0.31871-2.3613-0.43555-0.78993-0.11683-1.5824-0.20483-2.375-0.26562-0.79263-0.0608-1.5851-0.0949-2.377-0.0996-0.79184-5e-3 -1.5816 0.019-2.3691 0.0703-0.78754 0.0514-1.5718 0.13082-2.3516 0.23828-0.77973 0.10747-1.5558 0.24266-2.3242 0.40625-0.76842 0.1636-1.5296 0.35644-2.2832 0.57618s-1.4991 0.46627-2.2344 0.74218-1.4604 0.58001-2.1738 0.91211c-0.71348 0.3321-1.4154 0.69372-2.1035 1.082s-1.3641 0.80351-2.0234 1.248c-0.65932 0.44454-1.3027 0.91717-1.9297 1.418-0.627 0.5008-1.237 1.0308-1.8281 1.5879s-1.163 1.1425-1.7148 1.7559-1.0828 1.2542-1.5918 1.9238-0.99635 1.3677-1.459 2.0938c-0.46264 0.72601-0.90167 1.4793-1.3145 2.2617-0.41278 0.78237-0.79877 1.5929-1.1582 2.4316-0.35943 0.83875-0.69156 1.7064-0.99414 2.6016-0.21159 0.62598-0.3879 1.0981-0.54687 1.418-0.15898 0.31985-0.30035 0.48765-0.44141 0.50586-0.0705 0.0091-0.14229-0.02047-0.21484-0.08594-0.0726-0.06547-0.14569-0.16716-0.22461-0.30664-0.15786-0.27896-0.33361-0.7057-0.54297-1.2773-0.36369-0.99303-0.75755-1.95-1.1816-2.873-0.4241-0.92309-0.87897-1.8125-1.3594-2.666-0.4804-0.85354-0.9869-1.6726-1.5195-2.457-0.53263-0.78438-1.0911-1.5344-1.6719-2.25-0.58076-0.71561-1.1838-1.3957-1.8086-2.043-0.62479-0.64723-1.2708-1.2606-1.9356-1.8398-0.66474-0.57923-1.3482-1.1251-2.0488-1.6367s-1.418-0.98919-2.1504-1.4336c-0.73237-0.4444-1.4802-0.85486-2.2402-1.2324-0.76003-0.37757-1.5328-0.72209-2.3164-1.0332-0.78362-0.31111-1.5778-0.58893-2.3809-0.83398-0.80311-0.24506-1.6151-0.45734-2.4336-0.63672s-1.6428-0.32536-2.4726-0.43945c-0.82982-0.1141-1.6649-0.1969-2.502-0.2461-0.83702-0.0492-1.6774-0.0661-2.5176-0.0508z" fill="#f06"/>
				<path d="m-202.51-39.377a150.58 135.18 0 0 1-86.154 82.992c1.5117 1.1043 3.3356 2.379 5.3867 3.7559 2.384 1.6002 4.9729 3.2844 7.3984 4.8184s4.6875 2.9174 6.416 3.918c0.86425 0.50027 1.595 0.90426 2.1465 1.1836 0.55148 0.27932 0.9239 0.4336 1.0703 0.4336 0.0506 0 0.79671-0.3546 1.6582-0.78907 2.4048-1.2128 4.8364-2.5568 7.2715-4.0117s4.8732-3.0222 7.293-4.6797c2.4197-1.6575 4.821-3.4059 7.1797-5.2266s4.6759-3.7138 6.9277-5.6582 4.4377-3.9401 6.5371-5.9688c2.0994-2.0286 4.1125-4.0887 6.0137-6.1621s3.6904-4.1596 5.3476-6.2383c0.82864-1.0394 1.6257-2.078 2.3848-3.1113 0.75909-1.0333 1.4802-2.0617 2.1641-3.084 1.0448-1.5619 2.1844-3.4544 3.2949-5.4297s2.1934-4.0338 3.127-5.9297c0.93352-1.8958 1.7166-3.6276 2.2305-4.9512 0.25693-0.66177 0.44621-1.2221 0.55273-1.6484 0.10652-0.42629 0.13091-0.71845 0.0566-0.84765-0.058-0.10093-0.0809-0.16756-0.0723-0.19141 9e-3 -0.0239 0.048-6e-3 0.11915 0.0586 0.0594 0.054 0.14419-9e-3 0.24609-0.16993 0.1019-0.16121 0.22159-0.4204 0.35547-0.75976 0.26775-0.67871 0.58953-1.6772 0.92187-2.8457 0.33234-1.1686 0.67582-2.5077 0.98828-3.8691 0.31247-1.3614 0.59266-2.7446 0.80079-4.002 0.12754-0.77048 0.23479-1.7758 0.31835-2.8926 0.0836-1.1168 0.14485-2.3449 0.17774-3.5605 0.0329-1.2157 0.0382-2.4192 0.0137-3.4863s-0.0794-1.9987-0.16797-2.6699c-0.1089-0.82569-0.20509-1.7713-0.21484-2.1016-0.0102-0.34375-0.11656-0.94081-0.28711-1.6836s-0.40706-1.6315-0.67578-2.5586c-0.25368-0.87519-0.53899-1.7794-0.82617-2.6328z" fill="#d40055"/>
				<path d="m-328.26-20.906c1.6876-8.7863 0.93248-17.216 9.4539-27 7.8518-8.1194 17.408-11.882 28.588-11.495-20.055 7.442-32.388 20.527-38.042 38.495z" fill="#f59"/>
			</g>
			<path d="m82.342 30.833c1.1 1.6333 2.2667 3.8667 2.7667 5.4h-6.5333v3.4333h28.333v-3.4333h-7.5667c1.1667-1.4333 2.5-3.4333 3.7667-5.3l-3.7333-1.3667h5.5667v-3.4667h-10.3v-3.3h6.3667v-1.7333c1.6667 1.2 3.4 2.2667 5.1 3.1667 0.73333-1.2 1.6667-2.5667 2.6667-3.6-5.3-2.1333-10.7-6.3667-14.3-11.433h-4.1667c-2.4667 4.0667-7.8333 9.0667-13.533 11.833 0.86667 0.83333 2 2.3333 2.5 3.2667 1.7-0.93333 3.4-2 4.9667-3.1333v1.6333h6.1667v3.3h-10.167v3.4667h5.1333zm10.233-17.7c1.5 2 3.6667 4.1667 6.1333 6.1667h-12.067c2.4333-2 4.5-4.1667 5.9333-6.1667zm-2.1667 16.433v6.6667h-4.4667l2.7-1.2c-0.46667-1.5-1.8-3.8-3.0667-5.4667zm4.2333 0h4.6333c-0.76667 1.8-2.1 4.2-3.2 5.7333l2.2 0.93333h-3.6333zm21.5-11.833h5.8v2.0667h-5.8zm-3.4-2.6333v7.2667h12.833v-7.2667zm-1.5667-4.5v3.3h15.867v-3.3zm16.567 5.0333v13.767h4.6333v6.3333c-2 0.3-3.8333 0.56667-5.3 0.73333l0.86666 3.7667c3.0333-0.53333 6.8667-1.2333 10.533-1.9667 0.16666 0.86666 0.26666 1.6667 0.3 2.3333l3.2333-0.83333c-0.2-2.4-1.2333-6.2333-2.4-9.1667l-3 0.7c0.43333 1.1333 0.8 2.3667 1.1333 3.6l-1.9 0.3v-5.8h4.9333v-13.767h-4.9667v-5.8333h-3.4667v5.8333zm-16.367 8v16.9h3.0333v-9.7333c0.43334 0.33333 0.93334 0.73333 1.2 1.0667h-0.36666v2.6h2.3v5.2667h2.8333v-5.2667h2.3667v-2.6h-6.7333c2-1.5 2.3-3.6 2.3333-5.4h1.3v1.7333c0 2.0667 0.4 2.6667 2.3333 2.6667h1.5667 0.1v6.3667c0 0.33333-0.1 0.43333-0.4 0.43333s-1.2333 0-2.1667-0.03333c0.4 0.83333 0.76667 2.1 0.83334 2.9333 1.6667 0 2.8667-0.03333 3.7333-0.53333 0.89999-0.5 1.1333-1.3333 1.1333-2.7333v-13.667zm19.5-4.6h1.8v6.9667h-1.8zm4.7 0h1.9v6.9667h-1.9zm-11.933 7.4333v2.0333c-0.0667 0.2-0.16667 0.23333-0.5 0.23333h-0.83333c-0.36667 0-0.4-0.03333-0.4-0.56667v-1.7zm-9.2333 3.6333v-3.6333h1.7333c-0.0333 1.1333-0.3 2.6-1.7333 3.6333zm45.7 6.0667c3.8 1.1667 9 3.2 11.5 4.6333l2.0667-3.3667c-2.7-1.4-8-3.3-11.667-4.2333zm-11.633-12.167v10.667h4.0333v-7.3333h13.667v7.1h4.2333v-10.433zm8.7333 4.7v2c0 2.7667-1.5333 5.0667-11.867 6.5333 0.8 0.8 2.1 2.5 2.5 3.4 10.667-1.7 13.333-5.4 13.333-9.7667v-2.1667zm-8.7333-14.867h2.2333v1.5667h-3.1333c0.33333-0.5 0.63333-1.0333 0.9-1.5667zm4.1 9.8c0.53334-0.33333 1.5333-0.6 6.8333-1.7667 0-0.6 0.0667-1.7667 0.23333-2.5333l-3.6 0.66667v-2h2.7333v-2.6h-4.4667v-1.5667h3.8333v-2.5667h-3.8333v-1.9667h-3.6v1.9667h-1.2l0.43333-1.3667-3.1667-0.5c-0.4 1.5-1.1333 3.2667-2.2333 4.6667 0.73333 0.26667 1.7333 0.76667 2.4667 1.3333h-2.6667v2.6h3.5667c-0.4 1.7667-1.4 3-4.1667 3.8333 0.66666 0.53333 1.5 1.6667 1.8667 2.4333 3.7333-1.3667 5.0667-3.3667 5.6-6.2667h1.6v1.0333c0 1.4667-0.8 2.0667-1.4 2.4 0.43333 0.43333 0.96666 1.5333 1.1667 2.2zm10.5-9.8h2.3333v1.5667h-3.3c0.36666-0.5 0.66666-1.0333 0.96666-1.5667zm-3.4333 1.5667v2.6h3.3c-0.33333 1.6333-1.1333 2.7-3.5 3.4333 0.66667 0.53333 1.5 1.7 1.8333 2.4333 3.3-1.2333 4.3667-3.1333 4.8-5.8667h1.1667v1.8333c0 2.5 0.53333 3.3 3.1 3.3h2c1.7667 0 2.5667-0.66667 2.8333-3.1333-0.8-0.2-2.1-0.63333-2.6667-1.0667-0.0667 1.3667-0.2 1.5667-0.6 1.5667h-1c-0.4 0-0.46667-0.03333-0.46667-0.7v-1.8h3.9v-2.6h-5.2667v-1.5667h4.2333v-2.5333h-4.2333v-2h-3.6667v2h-1.2667l0.46666-1.4-3.0667-0.5c-0.43333 1.5-1.2333 3.3-2.4333 4.7 0.73333 0.26667 1.7 0.76667 2.4 1.3zm17.2 17.867 0.7 4.1 14.7-3.5667c-1.0333 1.4333-2.3333 2.7-4 3.8 0.96667 0.7 2.2333 2.0667 2.8 3.0333 6.4667-4.4667 8.3-11.533 8.8-20.333h3.5667c-0.23333 10.7-0.53333 14.867-1.2667 15.8-0.33334 0.46667-0.66667 0.56667-1.2333 0.56667-0.7 0-2.2-0.03333-3.8333-0.13333 0.66667 1.0333 1.1333 2.7333 1.2 3.8 1.7 0.06667 3.4333 0.1 4.5333-0.1 1.1667-0.2 2-0.56667 2.7667-1.7 1.1-1.5667 1.4-6.5 1.7-20.233v-1.8h-7.2666c0.0667-2.3 0.0667-4.7 0.0667-7.1667h-3.9l-0.0667 7.1667h-4.3667v3.8h4.2333c-0.3 5.1333-1.1 9.5-3.3667 12.967l-0.33333-3.1333-1.4333 0.3v-19.733h-11.633v22.133zm5.9-1.1333v-4.0667h4.4v3.1667zm0-10.967h4.4v3.4h-4.4zm0-3.5v-3.3667h4.4v3.3667z" aria-label="金融赞助"/>
		</g>
	</g>
</svg>
