<svg width="250" height="50" version="1.1" viewBox="0 0 250 50" xmlns="http://www.w3.org/2000/svg">
	<rect id="background" x="20.495" y=".494" width="209.01" height="49.012" rx="4.9765" ry="4.9012" fill="#ffd5e5" stroke="#800033" stroke-linecap="round" stroke-linejoin="round" stroke-width=".98774"/>
	<g transform="translate(-1.1121)">
		<g transform="matrix(.24879 0 0 .24879 111 25.806)">
			<path d="m-298.13-64.196c-0.84015 0.0153-1.6803 0.0631-2.5195 0.14258-0.83918 0.0794-1.6776 0.19081-2.5117 0.33398-0.83412 0.14318-1.6633 0.31887-2.4883 0.52539-0.82497 0.20653-1.6453 0.4434-2.457 0.71289-0.81173 0.2695-1.6158 0.57028-2.4102 0.90235-0.7944 0.33206-1.5786 0.69559-2.3516 1.0898-0.77297 0.39426-1.5338 0.81934-2.2812 1.2754-0.74745 0.45606-1.4814 0.94347-2.1992 1.4609-0.71785 0.51747-1.4194 1.066-2.1035 1.6445-0.68415 0.5785-1.3517 1.187-1.998 1.8262-0.64636 0.63914-1.2725 1.3084-1.877 2.0078-0.60448 0.69938-1.1876 1.4282-1.7461 2.1875-0.55851 0.75924-1.0931 1.5485-1.6016 2.3672-0.50844 0.81873-0.98907 1.6671-1.4434 2.5449-0.45428 0.87781-0.8813 1.7861-1.2773 2.7227s-0.76201 1.9017-1.0957 2.8965c-0.3337 0.99483-0.63508 2.0195-0.90235 3.0723-0.38313 1.5092-0.67758 3.0466-0.88476 4.6113s-0.32789 3.1552-0.36328 4.7676c-0.0354 1.6124 0.0143 3.2483 0.14648 4.9004 0.13223 1.6521 0.34689 3.322 0.64258 5.0059 0.29569 1.6838 0.67197 3.3802 1.127 5.0879 0.45498 1.7076 0.98951 3.4249 1.5996 5.1484 0.6101 1.7235 1.2975 3.4541 2.0586 5.1855 0.76106 1.7314 1.5961 3.4639 2.5039 5.1953s1.887 3.4622 2.9375 5.1855c1.0505 1.7234 2.1724 3.439 3.3613 5.1465s2.4463 3.4063 3.7695 5.0898 2.7127 3.3521 4.166 5.0039 2.9695 3.2864 4.5488 4.8984 3.2208 3.2013 4.9219 4.7656 3.4625 3.1027 5.2812 4.6113 3.6948 2.9886 5.627 4.4336c1.6038 1.1994 3.782 2.7162 6.166 4.3164s4.9729 3.2844 7.3984 4.8184c2.4256 1.534 4.6875 2.9174 6.416 3.918 0.86425 0.50027 1.595 0.90427 2.1465 1.1836 0.55149 0.27932 0.9239 0.43359 1.0703 0.43359 0.0506 0 0.79671-0.35459 1.6582-0.78906 2.4048-1.2128 4.8364-2.5568 7.2715-4.0117s4.8732-3.0222 7.293-4.6797c2.4197-1.6575 4.821-3.4059 7.1797-5.2266 2.3586-1.8207 4.6759-3.7138 6.9277-5.6582s4.4377-3.9401 6.5371-5.9688c2.0994-2.0286 4.1125-4.0887 6.0137-6.1621s3.6904-4.1596 5.3476-6.2383c0.82864-1.0394 1.6257-2.078 2.3848-3.1113 0.75909-1.0333 1.4802-2.0617 2.1641-3.084 1.0448-1.5619 2.1844-3.4544 3.2949-5.4297s2.1934-4.0338 3.127-5.9297 1.7166-3.6276 2.2305-4.9512c0.25693-0.66178 0.44621-1.2221 0.55273-1.6484 0.10652-0.42629 0.13087-0.71845 0.0566-0.84766-0.058-0.10093-0.0809-0.16755-0.0723-0.19141 9e-3 -0.02386 0.048-0.0061 0.11915 0.05859 0.0594 0.05405 0.14419-0.0087 0.24609-0.16992s0.22159-0.42041 0.35547-0.75977c0.26775-0.67871 0.58953-1.6772 0.92187-2.8457s0.67582-2.5077 0.98828-3.8691c0.31247-1.3614 0.59266-2.7446 0.80079-4.002 0.12754-0.77048 0.23479-1.7758 0.31835-2.8926 0.0836-1.1168 0.14485-2.3449 0.17774-3.5605 0.0329-1.2157 0.0382-2.4192 0.0137-3.4863s-0.0794-1.9987-0.16797-2.6699c-0.1089-0.8257-0.20509-1.7713-0.21484-2.1016-0.0102-0.34375-0.11656-0.94081-0.28711-1.6836s-0.40706-1.6315-0.67578-2.5586c-0.26873-0.92711-0.57034-1.8923-0.875-2.7891-0.30467-0.89674-0.61225-1.7253-0.89063-2.377-0.38414-0.89925-0.79456-1.7698-1.2305-2.6133-0.4359-0.84351-0.8967-1.6595-1.3809-2.4473-0.48415-0.78773-0.99062-1.5474-1.5195-2.2793-0.5289-0.73193-1.0802-1.4352-1.6504-2.1113-0.57015-0.67613-1.1597-1.325-1.7676-1.9453-0.60789-0.62029-1.2348-1.2129-1.877-1.7773s-1.2998-1.1008-1.9726-1.6094c-0.67288-0.50855-1.3604-0.98874-2.0606-1.4414s-1.4129-0.8767-2.1367-1.2734-1.4591-0.76662-2.2031-1.1074c-0.74406-0.3408-1.497-0.65266-2.2578-0.9375-0.76078-0.28484-1.5287-0.54262-2.3027-0.77149-0.774-0.22886-1.5542-0.4287-2.3379-0.60156-0.78372-0.17286-1.5714-0.31871-2.3613-0.43555-0.78993-0.11683-1.5824-0.20483-2.375-0.26562-0.79263-0.0608-1.5851-0.0949-2.377-0.0996-0.79184-5e-3 -1.5816 0.019-2.3691 0.0703-0.78754 0.0514-1.5718 0.13082-2.3516 0.23828-0.77973 0.10747-1.5558 0.24266-2.3242 0.40625-0.76842 0.1636-1.5296 0.35644-2.2832 0.57618s-1.4991 0.46627-2.2344 0.74218-1.4604 0.58001-2.1738 0.91211c-0.71348 0.3321-1.4154 0.69372-2.1035 1.082s-1.3641 0.80351-2.0234 1.248c-0.65932 0.44454-1.3027 0.91717-1.9297 1.418-0.627 0.5008-1.237 1.0308-1.8281 1.5879s-1.163 1.1425-1.7148 1.7559-1.0828 1.2542-1.5918 1.9238-0.99635 1.3677-1.459 2.0938c-0.46264 0.72601-0.90167 1.4793-1.3145 2.2617-0.41278 0.78237-0.79877 1.5929-1.1582 2.4316-0.35943 0.83875-0.69156 1.7064-0.99414 2.6016-0.21159 0.62598-0.3879 1.0981-0.54687 1.418-0.15898 0.31985-0.30035 0.48765-0.44141 0.50586-0.0705 0.0091-0.14229-0.02047-0.21484-0.08594-0.0726-0.06547-0.14569-0.16716-0.22461-0.30664-0.15786-0.27896-0.33361-0.7057-0.54297-1.2773-0.36369-0.99303-0.75755-1.95-1.1816-2.873-0.4241-0.92309-0.87897-1.8125-1.3594-2.666-0.4804-0.85354-0.9869-1.6726-1.5195-2.457-0.53263-0.78438-1.0911-1.5344-1.6719-2.25-0.58076-0.71561-1.1838-1.3957-1.8086-2.043-0.62479-0.64723-1.2708-1.2606-1.9356-1.8398-0.66474-0.57923-1.3482-1.1251-2.0488-1.6367s-1.418-0.98919-2.1504-1.4336c-0.73237-0.4444-1.4802-0.85486-2.2402-1.2324-0.76003-0.37757-1.5328-0.72209-2.3164-1.0332-0.78362-0.31111-1.5778-0.58893-2.3809-0.83398-0.80311-0.24506-1.6151-0.45734-2.4336-0.63672s-1.6428-0.32536-2.4726-0.43945c-0.82982-0.1141-1.6649-0.1969-2.502-0.2461-0.83702-0.0492-1.6774-0.0661-2.5176-0.0508z" fill="#f06"/>
			<path d="m-202.51-39.377a150.58 135.18 0 0 1-86.154 82.992c1.5117 1.1043 3.3356 2.379 5.3867 3.7559 2.384 1.6002 4.9729 3.2844 7.3984 4.8184s4.6875 2.9174 6.416 3.918c0.86425 0.50027 1.595 0.90426 2.1465 1.1836 0.55148 0.27932 0.9239 0.4336 1.0703 0.4336 0.0506 0 0.79671-0.3546 1.6582-0.78907 2.4048-1.2128 4.8364-2.5568 7.2715-4.0117s4.8732-3.0222 7.293-4.6797c2.4197-1.6575 4.821-3.4059 7.1797-5.2266s4.6759-3.7138 6.9277-5.6582 4.4377-3.9401 6.5371-5.9688c2.0994-2.0286 4.1125-4.0887 6.0137-6.1621s3.6904-4.1596 5.3476-6.2383c0.82864-1.0394 1.6257-2.078 2.3848-3.1113 0.75909-1.0333 1.4802-2.0617 2.1641-3.084 1.0448-1.5619 2.1844-3.4544 3.2949-5.4297s2.1934-4.0338 3.127-5.9297c0.93352-1.8958 1.7166-3.6276 2.2305-4.9512 0.25693-0.66177 0.44621-1.2221 0.55273-1.6484 0.10652-0.42629 0.13091-0.71845 0.0566-0.84765-0.058-0.10093-0.0809-0.16756-0.0723-0.19141 9e-3 -0.0239 0.048-6e-3 0.11915 0.0586 0.0594 0.054 0.14419-9e-3 0.24609-0.16993 0.1019-0.16121 0.22159-0.4204 0.35547-0.75976 0.26775-0.67871 0.58953-1.6772 0.92187-2.8457 0.33234-1.1686 0.67582-2.5077 0.98828-3.8691 0.31247-1.3614 0.59266-2.7446 0.80079-4.002 0.12754-0.77048 0.23479-1.7758 0.31835-2.8926 0.0836-1.1168 0.14485-2.3449 0.17774-3.5605 0.0329-1.2157 0.0382-2.4192 0.0137-3.4863s-0.0794-1.9987-0.16797-2.6699c-0.1089-0.82569-0.20509-1.7713-0.21484-2.1016-0.0102-0.34375-0.11656-0.94081-0.28711-1.6836s-0.40706-1.6315-0.67578-2.5586c-0.25368-0.87519-0.53899-1.7794-0.82617-2.6328z" fill="#d40055"/>
			<path d="m-328.26-20.906c1.6876-8.7863 0.93248-17.216 9.4539-27 7.8518-8.1194 17.408-11.882 28.588-11.495-20.055 7.442-32.388 20.527-38.042 38.495z" fill="#f59"/>
		</g>
		<path d="m81.189 30.317q0 3.1666-2.3 5.0666-2.2666 1.8666-6.4666 1.8666-3.7666 0-6.7333-1.4333v-4.7q1.7 0.73333 3.5 1.3667 1.8333 0.59999 3.6333 0.59999 1.8666 0 2.6333-0.69999 0.79999-0.73333 0.79999-1.8333 0-0.89999-0.63333-1.5333-0.59999-0.63333-1.6333-1.1667-1.0333-0.56666-2.3666-1.2-0.83332-0.4-1.8-0.93332-0.96666-0.56666-1.8666-1.3667-0.86666-0.83332-1.4333-2t-0.56666-2.8q0-3.2 2.1666-4.9666 2.1666-1.8 5.8999-1.8 1.8666 0 3.5333 0.43333 1.7 0.43333 3.5333 1.2333l-1.6333 3.9333q-1.6333-0.66666-2.9333-1.0333t-2.6666-0.36666q-1.4333 0-2.2 0.66666t-0.76666 1.7333q0 1.2667 1.1333 2t3.3666 1.8q1.8333 0.86666 3.1 1.8 1.3 0.93332 2 2.2t0.69999 3.1333zm11.933-17.2q4.6 0 6.6999 2 2.1333 1.9666 2.1333 5.4333 0 2.0666-0.86666 3.9-0.86666 1.8-2.9 2.9-2 1.1-5.4666 1.1h-2.1666v8.4666h-5.0333v-23.8zm-0.26666 4.1333h-2.3v7.0666h1.6666q2.1333 0 3.3666-0.83332 1.2667-0.86666 1.2667-2.7666 0-3.4666-4-3.4666zm35.2 7.7333q0 3.7-1.2333 6.4666-1.2 2.7333-3.7 4.2666-2.5 1.5333-6.3999 1.5333-3.8666 0-6.3999-1.5333-2.5-1.5333-3.7333-4.3-1.2-2.7666-1.2-6.4666t1.2-6.4333q1.2333-2.7333 3.7333-4.2333 2.5333-1.5333 6.4333-1.5333 3.8666 0 6.3666 1.5333 2.5 1.5 3.7 4.2666 1.2333 2.7333 1.2333 6.4333zm-17.366 0q0 3.7333 1.4333 5.8999 1.4333 2.1333 4.6 2.1333 3.2333 0 4.6333-2.1333 1.4-2.1666 1.4-5.8999 0-3.7666-1.4-5.8999-1.4-2.1333-4.6-2.1333t-4.6333 2.1333-1.4333 5.8999zm43.4 11.933h-6.3999l-10.367-18h-0.13333q0.0667 1.7 0.13333 3.4 0.1 1.7 0.16667 3.4v11.2h-4.5v-23.8h6.3666l10.333 17.833h0.1q-0.0333-1.6666-0.1-3.3t-0.13334-3.2666v-11.267h4.5333zm20.033-6.5999q0 3.1666-2.3 5.0666-2.2666 1.8666-6.4666 1.8666-3.7666 0-6.7333-1.4333v-4.7q1.7 0.73333 3.5 1.3667 1.8333 0.59999 3.6333 0.59999 1.8666 0 2.6333-0.69999 0.79999-0.73333 0.79999-1.8333 0-0.89999-0.63333-1.5333-0.59999-0.63333-1.6333-1.1667-1.0333-0.56666-2.3666-1.2-0.83332-0.4-1.8-0.93332-0.96666-0.56666-1.8666-1.3667-0.86666-0.83332-1.4333-2t-0.56666-2.8q0-3.2 2.1666-4.9666 2.1666-1.8 5.8999-1.8 1.8666 0 3.5333 0.43333 1.7 0.43333 3.5333 1.2333l-1.6333 3.9333q-1.6333-0.66666-2.9333-1.0333-1.3-0.36666-2.6666-0.36666-1.4333 0-2.2 0.66666-0.76665 0.66666-0.76665 1.7333 0 1.2667 1.1333 2t3.3666 1.8q1.8333 0.86666 3.1 1.8 1.3 0.93332 2 2.2t0.69999 3.1333zm25.933-5.3333q0 3.7-1.2333 6.4666-1.2 2.7333-3.7 4.2666-2.5 1.5333-6.3999 1.5333-3.8666 0-6.3999-1.5333-2.5-1.5333-3.7333-4.3-1.2-2.7666-1.2-6.4666t1.2-6.4333q1.2333-2.7333 3.7333-4.2333 2.5333-1.5333 6.4333-1.5333 3.8666 0 6.3666 1.5333 2.5 1.5 3.7 4.2666 1.2333 2.7333 1.2333 6.4333zm-17.366 0q0 3.7333 1.4333 5.8999 1.4333 2.1333 4.6 2.1333 3.2333 0 4.6333-2.1333 1.4-2.1666 1.4-5.8999 0-3.7666-1.4-5.8999-1.4-2.1333-4.6-2.1333-3.2 0-4.6333 2.1333t-1.4333 5.8999zm29.233-11.867q4.8666 0 7.1666 1.7666 2.3333 1.7666 2.3333 5.3666 0 1.6333-0.63333 2.8666-0.6 1.2-1.6333 2.0666-0.99999 0.83332-2.1666 1.3667l6.9999 10.367h-5.6l-5.6666-9.1332h-2.7v9.1332h-5.0333v-23.8zm-0.36666 4.1333h-1.5333v6.4333h1.6333q2.5 0 3.5666-0.83332 1.1-0.83332 1.1-2.4666 0-1.7-1.1667-2.4-1.1333-0.73333-3.6-0.73333z" aria-label="SPONSOR"/>
	</g>
</svg>
