<svg width="100" height="30" version="1.1" viewBox="0 0 100 30" xmlns="http://www.w3.org/2000/svg">
	<g id="foreground" transform="matrix(.4762 0 0 .4762 7.9861 3.0949)">
		<g transform="translate(-16.737,25)">
			<rect id="background" x=".45899" y="-24.506" width="209.01" height="49.012" rx="4.9765" ry="4.9012" fill="#ffd5e5" stroke="#800033" stroke-linecap="round" stroke-linejoin="round" stroke-width=".98774"/>
			<g transform="translate(3.2411)">
				<g transform="matrix(.24879 0 0 .24879 104.62 .80592)">
					<path d="m-298.13-64.196c-0.84015 0.0153-1.6803 0.0631-2.5195 0.14258-0.83918 0.0794-1.6776 0.19081-2.5117 0.33398-0.83412 0.14318-1.6633 0.31887-2.4883 0.52539-0.82497 0.20653-1.6453 0.4434-2.457 0.71289-0.81173 0.2695-1.6158 0.57028-2.4102 0.90235-0.7944 0.33206-1.5786 0.69559-2.3516 1.0898-0.77297 0.39426-1.5338 0.81934-2.2812 1.2754-0.74745 0.45606-1.4814 0.94347-2.1992 1.4609-0.71785 0.51747-1.4194 1.066-2.1035 1.6445-0.68415 0.5785-1.3517 1.187-1.998 1.8262-0.64636 0.63914-1.2725 1.3084-1.877 2.0078-0.60448 0.69938-1.1876 1.4282-1.7461 2.1875-0.55851 0.75924-1.0931 1.5485-1.6016 2.3672-0.50844 0.81873-0.98907 1.6671-1.4434 2.5449-0.45428 0.87781-0.8813 1.7861-1.2773 2.7227s-0.76201 1.9017-1.0957 2.8965c-0.3337 0.99483-0.63508 2.0195-0.90235 3.0723-0.38313 1.5092-0.67758 3.0466-0.88476 4.6113s-0.32789 3.1552-0.36328 4.7676c-0.0354 1.6124 0.0143 3.2483 0.14648 4.9004 0.13223 1.6521 0.34689 3.322 0.64258 5.0059 0.29569 1.6838 0.67197 3.3802 1.127 5.0879 0.45498 1.7076 0.98951 3.4249 1.5996 5.1484 0.6101 1.7235 1.2975 3.4541 2.0586 5.1855 0.76106 1.7314 1.5961 3.4639 2.5039 5.1953s1.887 3.4622 2.9375 5.1855c1.0505 1.7234 2.1724 3.439 3.3613 5.1465s2.4463 3.4063 3.7695 5.0898 2.7127 3.3521 4.166 5.0039 2.9695 3.2864 4.5488 4.8984 3.2208 3.2013 4.9219 4.7656 3.4625 3.1027 5.2812 4.6113 3.6948 2.9886 5.627 4.4336c1.6038 1.1994 3.782 2.7162 6.166 4.3164s4.9729 3.2844 7.3984 4.8184c2.4256 1.534 4.6875 2.9174 6.416 3.918 0.86425 0.50027 1.595 0.90427 2.1465 1.1836 0.55149 0.27932 0.9239 0.43359 1.0703 0.43359 0.0506 0 0.79671-0.35459 1.6582-0.78906 2.4048-1.2128 4.8364-2.5568 7.2715-4.0117s4.8732-3.0222 7.293-4.6797c2.4197-1.6575 4.821-3.4059 7.1797-5.2266 2.3586-1.8207 4.6759-3.7138 6.9277-5.6582s4.4377-3.9401 6.5371-5.9688c2.0994-2.0286 4.1125-4.0887 6.0137-6.1621s3.6904-4.1596 5.3476-6.2383c0.82864-1.0394 1.6257-2.078 2.3848-3.1113 0.75909-1.0333 1.4802-2.0617 2.1641-3.084 1.0448-1.5619 2.1844-3.4544 3.2949-5.4297s2.1934-4.0338 3.127-5.9297 1.7166-3.6276 2.2305-4.9512c0.25693-0.66178 0.44621-1.2221 0.55273-1.6484 0.10652-0.42629 0.13087-0.71845 0.0566-0.84766-0.058-0.10093-0.0809-0.16755-0.0723-0.19141 9e-3 -0.02386 0.048-0.0061 0.11915 0.05859 0.0594 0.05405 0.14419-0.0087 0.24609-0.16992s0.22159-0.42041 0.35547-0.75977c0.26775-0.67871 0.58953-1.6772 0.92187-2.8457s0.67582-2.5077 0.98828-3.8691c0.31247-1.3614 0.59266-2.7446 0.80079-4.002 0.12754-0.77048 0.23479-1.7758 0.31835-2.8926 0.0836-1.1168 0.14485-2.3449 0.17774-3.5605 0.0329-1.2157 0.0382-2.4192 0.0137-3.4863s-0.0794-1.9987-0.16797-2.6699c-0.1089-0.8257-0.20509-1.7713-0.21484-2.1016-0.0102-0.34375-0.11656-0.94081-0.28711-1.6836s-0.40706-1.6315-0.67578-2.5586c-0.26873-0.92711-0.57034-1.8923-0.875-2.7891-0.30467-0.89674-0.61225-1.7253-0.89063-2.377-0.38414-0.89925-0.79456-1.7698-1.2305-2.6133-0.4359-0.84351-0.8967-1.6595-1.3809-2.4473-0.48415-0.78773-0.99062-1.5474-1.5195-2.2793-0.5289-0.73193-1.0802-1.4352-1.6504-2.1113-0.57015-0.67613-1.1597-1.325-1.7676-1.9453-0.60789-0.62029-1.2348-1.2129-1.877-1.7773s-1.2998-1.1008-1.9726-1.6094c-0.67288-0.50855-1.3604-0.98874-2.0606-1.4414s-1.4129-0.8767-2.1367-1.2734-1.4591-0.76662-2.2031-1.1074c-0.74406-0.3408-1.497-0.65266-2.2578-0.9375-0.76078-0.28484-1.5287-0.54262-2.3027-0.77149-0.774-0.22886-1.5542-0.4287-2.3379-0.60156-0.78372-0.17286-1.5714-0.31871-2.3613-0.43555-0.78993-0.11683-1.5824-0.20483-2.375-0.26562-0.79263-0.0608-1.5851-0.0949-2.377-0.0996-0.79184-5e-3 -1.5816 0.019-2.3691 0.0703-0.78754 0.0514-1.5718 0.13082-2.3516 0.23828-0.77973 0.10747-1.5558 0.24266-2.3242 0.40625-0.76842 0.1636-1.5296 0.35644-2.2832 0.57618s-1.4991 0.46627-2.2344 0.74218-1.4604 0.58001-2.1738 0.91211c-0.71348 0.3321-1.4154 0.69372-2.1035 1.082s-1.3641 0.80351-2.0234 1.248c-0.65932 0.44454-1.3027 0.91717-1.9297 1.418-0.627 0.5008-1.237 1.0308-1.8281 1.5879s-1.163 1.1425-1.7148 1.7559-1.0828 1.2542-1.5918 1.9238-0.99635 1.3677-1.459 2.0938c-0.46264 0.72601-0.90167 1.4793-1.3145 2.2617-0.41278 0.78237-0.79877 1.5929-1.1582 2.4316-0.35943 0.83875-0.69156 1.7064-0.99414 2.6016-0.21159 0.62598-0.3879 1.0981-0.54687 1.418-0.15898 0.31985-0.30035 0.48765-0.44141 0.50586-0.0705 0.0091-0.14229-0.02047-0.21484-0.08594-0.0726-0.06547-0.14569-0.16716-0.22461-0.30664-0.15786-0.27896-0.33361-0.7057-0.54297-1.2773-0.36369-0.99303-0.75755-1.95-1.1816-2.873-0.4241-0.92309-0.87897-1.8125-1.3594-2.666-0.4804-0.85354-0.9869-1.6726-1.5195-2.457-0.53263-0.78438-1.0911-1.5344-1.6719-2.25-0.58076-0.71561-1.1838-1.3957-1.8086-2.043-0.62479-0.64723-1.2708-1.2606-1.9356-1.8398-0.66474-0.57923-1.3482-1.1251-2.0488-1.6367s-1.418-0.98919-2.1504-1.4336c-0.73237-0.4444-1.4802-0.85486-2.2402-1.2324-0.76003-0.37757-1.5328-0.72209-2.3164-1.0332-0.78362-0.31111-1.5778-0.58893-2.3809-0.83398-0.80311-0.24506-1.6151-0.45734-2.4336-0.63672s-1.6428-0.32536-2.4726-0.43945c-0.82982-0.1141-1.6649-0.1969-2.502-0.2461-0.83702-0.0492-1.6774-0.0661-2.5176-0.0508z" fill="#f06"/>
					<path d="m-202.51-39.377a150.58 135.18 0 0 1-86.154 82.992c1.5117 1.1043 3.3356 2.379 5.3867 3.7559 2.384 1.6002 4.9729 3.2844 7.3984 4.8184s4.6875 2.9174 6.416 3.918c0.86425 0.50027 1.595 0.90426 2.1465 1.1836 0.55148 0.27932 0.9239 0.4336 1.0703 0.4336 0.0506 0 0.79671-0.3546 1.6582-0.78907 2.4048-1.2128 4.8364-2.5568 7.2715-4.0117s4.8732-3.0222 7.293-4.6797c2.4197-1.6575 4.821-3.4059 7.1797-5.2266s4.6759-3.7138 6.9277-5.6582 4.4377-3.9401 6.5371-5.9688c2.0994-2.0286 4.1125-4.0887 6.0137-6.1621s3.6904-4.1596 5.3476-6.2383c0.82864-1.0394 1.6257-2.078 2.3848-3.1113 0.75909-1.0333 1.4802-2.0617 2.1641-3.084 1.0448-1.5619 2.1844-3.4544 3.2949-5.4297s2.1934-4.0338 3.127-5.9297c0.93352-1.8958 1.7166-3.6276 2.2305-4.9512 0.25693-0.66177 0.44621-1.2221 0.55273-1.6484 0.10652-0.42629 0.13091-0.71845 0.0566-0.84765-0.058-0.10093-0.0809-0.16756-0.0723-0.19141 9e-3 -0.0239 0.048-6e-3 0.11915 0.0586 0.0594 0.054 0.14419-9e-3 0.24609-0.16993 0.1019-0.16121 0.22159-0.4204 0.35547-0.75976 0.26775-0.67871 0.58953-1.6772 0.92187-2.8457 0.33234-1.1686 0.67582-2.5077 0.98828-3.8691 0.31247-1.3614 0.59266-2.7446 0.80079-4.002 0.12754-0.77048 0.23479-1.7758 0.31835-2.8926 0.0836-1.1168 0.14485-2.3449 0.17774-3.5605 0.0329-1.2157 0.0382-2.4192 0.0137-3.4863s-0.0794-1.9987-0.16797-2.6699c-0.1089-0.82569-0.20509-1.7713-0.21484-2.1016-0.0102-0.34375-0.11656-0.94081-0.28711-1.6836s-0.40706-1.6315-0.67578-2.5586c-0.25368-0.87519-0.53899-1.7794-0.82617-2.6328z" fill="#d40055"/>
					<path d="m-328.26-20.906c1.6876-8.7863 0.93248-17.216 9.4539-27 7.8518-8.1194 17.408-11.882 28.588-11.495-20.055 7.442-32.388 20.527-38.042 38.495z" fill="#f59"/>
				</g>
				<path d="m66.151 5.3901c1.0164 1.5092 2.0944 3.5727 2.5564 4.9895h-6.0367v3.1723h26.179v-3.1723h-6.9915c1.078-1.3244 2.31-3.1723 3.4803-4.8971l-3.4495-1.2628h5.1435v-3.2031h-9.517v-3.0491h5.8827v-1.6016c1.54 1.1088 3.1415 2.0944 4.7123 2.9259 0.67759-1.1088 1.54-2.3716 2.464-3.3263-4.8971-1.9712-9.8866-5.8827-13.213-10.564h-3.8499c-2.2792 3.7575-7.2379 8.3774-12.505 10.934 0.80078 0.76998 1.848 2.156 2.31 3.0183 1.5708-0.86238 3.1415-1.848 4.5891-2.8951v1.5092h5.6979v3.0491h-9.3938v3.2031h4.7431zm9.4554-16.354c1.386 1.848 3.3879 3.8499 5.6671 5.6979h-11.149c2.2484-1.848 4.1579-3.8499 5.4823-5.6979zm-2.002 15.184v6.1599h-4.1271l2.4948-1.1088c-0.43119-1.386-1.6632-3.5111-2.8335-5.0511zm3.9115 0h4.2811c-0.70839 1.6632-1.9404 3.8807-2.9567 5.2975l2.0328 0.86238h-3.3571zm19.866-10.934h5.3591v1.9096h-5.3591zm-3.1415-2.4332v6.7143h11.858v-6.7143zm-1.4476-4.1579v3.0491h14.661v-3.0491zm15.307 4.6507v12.72h4.2811v5.8519c-1.848 0.27719-3.5419 0.52359-4.8971 0.67759l0.80079 3.4803c2.8027-0.49279 6.3447-1.1396 9.7326-1.8172 0.15399 0.80078 0.24639 1.54 0.27719 2.156l2.9875-0.76998c-0.18479-2.2176-1.1396-5.7595-2.2176-8.4698l-2.772 0.64679c0.40039 1.0472 0.73919 2.1868 1.0472 3.3263l-1.7556 0.27719v-5.3591h4.5583v-12.72h-4.5891v-5.3899h-3.2031v5.3899zm-15.123 7.3919v15.615h2.8027v-8.9934c0.40039 0.30799 0.86238 0.67759 1.1088 0.98558h-0.33879v2.4024h2.1252v4.8663h2.6179v-4.8663h2.1868v-2.4024h-6.2215c1.848-1.386 2.1252-3.3263 2.156-4.9895h1.2012v1.6016c0 1.9096 0.36959 2.464 2.156 2.464h1.4476 0.0924v5.8827c0 0.30799-0.0924 0.40039-0.36959 0.40039s-1.1396 0-2.002-0.0308c0.36959 0.76998 0.70839 1.9404 0.76998 2.7103 1.54 0 2.6488-0.0308 3.4495-0.49279 0.83158-0.46199 1.0472-1.232 1.0472-2.5256v-12.628zm18.018-4.2503h1.6632v6.4371h-1.6632zm4.3427 0h1.7556v6.4371h-1.7556zm-11.026 6.8683v1.8788c-0.0616 0.1848-0.15399 0.2156-0.46199 0.2156h-0.76998c-0.3388 0-0.3696-0.030799-0.3696-0.52359v-1.5708zm-8.5314 3.3571v-3.3571h1.6016c-0.0308 1.0472-0.2772 2.4024-1.6016 3.3571zm42.226 5.6055c3.5111 1.078 8.3158 2.9567 10.626 4.2811l1.9096-3.1107c-2.4948-1.2936-7.3918-3.0491-10.78-3.9115zm-10.749-11.242v9.8558h3.7267v-6.7759h12.628v6.5603h3.9115v-9.6402zm8.0694 4.3427v1.848c0 2.5564-1.4168 4.6815-10.965 6.0367 0.73919 0.73918 1.9404 2.31 2.31 3.1415 9.8558-1.5708 12.32-4.9895 12.32-9.0242v-2.002zm-8.0694-13.737h2.0636v1.4476h-2.8952c0.308-0.46199 0.58519-0.95478 0.83159-1.4476zm3.7883 9.055c0.49279-0.30799 1.4168-0.55439 6.3139-1.6324 0-0.55439 0.0616-1.6324 0.2156-2.3408l-3.3263 0.61599v-1.848h2.5256v-2.4024h-4.1271v-1.4476h3.5419v-2.3716h-3.5419v-1.8172h-3.3263v1.8172h-1.1088l0.40039-1.2628-2.9259-0.46199c-0.3696 1.386-1.0472 3.0183-2.0636 4.3119 0.67758 0.24639 1.6016 0.70839 2.2792 1.232h-2.464v2.4024h3.2955c-0.3696 1.6324-1.2936 2.7719-3.8499 3.5419 0.61599 0.49279 1.386 1.54 1.7248 2.2484 3.4495-1.2628 4.6815-3.1107 5.1743-5.7903h1.4784v0.95478c0 1.3552-0.73919 1.9096-1.2936 2.2176 0.4004 0.40039 0.89319 1.4168 1.078 2.0328zm9.7018-9.055h2.156v1.4476h-3.0491c0.3388-0.46199 0.61599-0.95478 0.89318-1.4476zm-3.1723 1.4476v2.4024h3.0491c-0.308 1.5092-1.0472 2.4948-3.2339 3.1723 0.61599 0.49279 1.386 1.5708 1.694 2.2484 3.0491-1.1396 4.0347-2.8951 4.4351-5.4207h1.078v1.694c0 2.31 0.49279 3.0491 2.8643 3.0491h1.848c1.6324 0 2.3716-0.61599 2.618-2.8951-0.73919-0.1848-1.9404-0.58519-2.464-0.98558-0.0616 1.2628-0.18479 1.4476-0.55438 1.4476h-0.92399c-0.36959 0-0.43119-0.030799-0.43119-0.64679v-1.6632h3.6035v-2.4024h-4.8663v-1.4476h3.9115v-2.3408h-3.9115v-1.848h-3.3879v1.848h-1.1704l0.43119-1.2936-2.8336-0.46199c-0.40039 1.386-1.1396 3.0491-2.2484 4.3427 0.67758 0.2464 1.5708 0.70839 2.2176 1.2012zm15.892 16.508 0.64678 3.7883 13.583-3.2955c-0.95478 1.3244-2.156 2.4948-3.6959 3.5111 0.89318 0.64679 2.0636 1.9096 2.5872 2.8027 5.9751-4.1271 7.669-10.657 8.131-18.788h3.2955c-0.2156 9.8866-0.49279 13.737-1.1704 14.599-0.30799 0.43119-0.61599 0.52359-1.1396 0.52359-0.64678 0-2.0328-0.0308-3.5419-0.1232 0.61599 0.95478 1.0472 2.5256 1.1088 3.5111 1.5708 0.0616 3.1723 0.0924 4.1887-0.0924 1.078-0.1848 1.848-0.52359 2.5564-1.5708 1.0164-1.4476 1.2936-6.0059 1.5708-18.695v-1.6632h-6.7143c0.0616-2.1252 0.0616-4.3427 0.0616-6.6219h-3.6035l-0.0616 6.6219h-4.0347v3.5111h3.9115c-0.27719 4.7431-1.0164 8.7778-3.1107 11.981l-0.30799-2.8951-1.3244 0.27719v-18.233h-10.749v20.451zm5.4515-1.0472v-3.7575h4.0655v2.9259zm0-10.133h4.0655v3.1415h-4.0655zm0-3.2339v-3.1107h4.0655v3.1107z" stroke-width="2.1" aria-label="金融赞助"/>
			</g>
		</g>
	</g>
</svg>
